<svg width="16" height="16" viewBox="0 0 16 16" fill="none" xmlns="http://www.w3.org/2000/svg">
<path fill-rule="evenodd" clip-rule="evenodd" d="M8.00033 2.00033C4.68662 2.00033 2.00033 4.68662 2.00033 8.00033C2.00033 11.314 4.68662 14.0003 8.00033 14.0003C11.314 14.0003 14.0003 11.314 14.0003 8.00033C14.0003 4.68662 11.314 2.00033 8.00033 2.00033ZM0.666992 8.00033C0.666992 3.95024 3.95024 0.666992 8.00033 0.666992C12.0504 0.666992 15.3337 3.95024 15.3337 8.00033C15.3337 12.0504 12.0504 15.3337 8.00033 15.3337C3.95024 15.3337 0.666992 12.0504 0.666992 8.00033Z" fill="black"/>
<path fill-rule="evenodd" clip-rule="evenodd" d="M4.86225 7.52892C5.1226 7.26857 5.54471 7.26857 5.80506 7.52892L8.00033 9.72418L10.1956 7.52892C10.4559 7.26857 10.878 7.26857 11.1384 7.52892C11.3987 7.78927 11.3987 8.21138 11.1384 8.47173L8.47173 11.1384C8.21138 11.3987 7.78927 11.3987 7.52892 11.1384L4.86225 8.47173C4.6019 8.21138 4.6019 7.78927 4.86225 7.52892Z" fill="black"/>
<path fill-rule="evenodd" clip-rule="evenodd" d="M8.00033 4.66699C8.36852 4.66699 8.66699 4.96547 8.66699 5.33366V10.667C8.66699 11.0352 8.36852 11.3337 8.00033 11.3337C7.63214 11.3337 7.33366 11.0352 7.33366 10.667V5.33366C7.33366 4.96547 7.63214 4.66699 8.00033 4.66699Z" fill="black"/>
</svg>
